<svg id="Capa_1" enable-background="new 0 0 511.977 511.977" height="512" viewBox="0 0 511.977 511.977" width="512" xmlns="http://www.w3.org/2000/svg"><g><g><path d="m314.718 235.304-22.512-22.512c-14.769-14.769-38.715-14.769-53.484 0l-204.635 204.635c-14.769 14.769-14.769 38.715 0 53.484l22.512 22.512c14.769 14.769 38.715 14.769 53.484 0l204.635-204.635c14.769-14.769 14.769-38.715 0-53.484z" fill="#5171f4"/><path d="m350.026 253.483-35.31 35.31-75.99-76 35.31-35.31c14.77-14.77 38.71-14.77 53.48 0l22.51 22.51c14.769 14.77 14.769 38.72 0 53.49z" fill="#c5f4fc"/><path d="m62.892 446.232c-13.71 13.71-14.69 35.32-2.95 50.16-1.16-.91-2.28-1.9-3.35-2.97l-22.51-22.51c-14.77-14.77-14.77-38.71 0-53.48l204.63-204.63 28.81 28.8z" fill="#2f51f3"/><path d="m352.992 203.342c-14.84-11.75-36.45-10.77-50.16 2.95l-35.31 35.31-28.8-28.81 35.31-35.31c14.77-14.77 38.71-14.77 53.48 0l22.51 22.51c1.07 1.07 2.06 2.19 2.97 3.35z" fill="#7dddfa"/><path d="m468.902 272.926h-15.519v-15.519c0-11.071-8.974-20.045-20.045-20.045-11.07 0-20.045 8.974-20.045 20.045v15.519h-15.519c-11.07 0-20.045 8.974-20.045 20.045s8.974 20.045 20.045 20.045h15.519v15.519c0 11.07 8.974 20.045 20.045 20.045 11.07 0 20.045-8.974 20.045-20.045v-15.519h15.519c11.07 0 20.045-8.974 20.045-20.045-.001-11.071-8.975-20.045-20.045-20.045z" fill="#f8e95c"/><g fill="#f4d757"><path d="m427.26 257.407c0-8.611 5.44-15.932 13.062-18.769-2.177-.811-4.523-1.275-6.983-1.275-11.07 0-20.045 8.974-20.045 20.045v15.519h13.967v-15.52z"/><path d="m391.696 292.971c0-11.07 8.974-20.045 20.045-20.045h-13.967c-11.07 0-20.045 8.974-20.045 20.045s8.974 20.045 20.045 20.045h13.967c-11.07 0-20.045-8.975-20.045-20.045z"/><path d="m427.26 328.534v-15.519h-13.967v15.519c0 11.07 8.974 20.045 20.045 20.045 2.46 0 4.806-.465 6.983-1.275-7.622-2.838-13.061-10.159-13.061-18.77z"/></g><path d="m205.1 102.884h-45.267v-45.267c0-12.445-10.089-22.534-22.534-22.534s-22.534 10.089-22.534 22.534v45.267h-45.268c-12.445 0-22.534 10.089-22.534 22.534 0 12.445 10.089 22.534 22.534 22.534h45.267v45.267c0 12.445 10.089 22.534 22.534 22.534s22.534-10.089 22.534-22.534v-45.267h45.268c12.445 0 22.534-10.089 22.534-22.534 0-12.445-10.089-22.534-22.534-22.534z" fill="#f8e95c"/><g fill="#f4d757"><path d="m130.061 57.617c0-9.76 6.206-18.068 14.886-21.2-2.388-.862-4.963-1.334-7.648-1.334-12.445 0-22.534 10.089-22.534 22.534v45.267h15.297v-45.267z"/><path d="m62.26 125.418c0-12.445 10.089-22.534 22.534-22.534h-15.297c-12.445 0-22.534 10.089-22.534 22.534 0 12.445 10.089 22.534 22.534 22.534h15.297c-12.445 0-22.534-10.088-22.534-22.534z"/><path d="m130.061 193.22v-45.267h-15.297v45.267c0 12.445 10.089 22.534 22.534 22.534 2.685 0 5.26-.472 7.648-1.334-8.679-3.132-14.885-11.441-14.885-21.2z"/></g><path d="m409.805 54.909h-26.773v-26.773c0-11.397-9.239-20.636-20.636-20.636s-20.636 9.239-20.636 20.636v26.773h-26.773c-11.397 0-20.636 9.239-20.636 20.636 0 11.397 9.239 20.636 20.636 20.636h26.773v26.773c0 11.397 9.239 20.636 20.636 20.636s20.636-9.239 20.636-20.636v-26.772h26.773c11.397 0 20.636-9.239 20.636-20.636.001-11.398-9.239-20.637-20.636-20.637z" fill="#f8e95c"/><g fill="#f4d757"><path d="m355.727 28.136c0-8.942 5.698-16.533 13.653-19.399-2.184-.787-4.528-1.238-6.983-1.238-11.397 0-20.636 9.239-20.636 20.636v26.773h13.967v-26.772z"/><path d="m355.727 122.955v-26.773h-13.967v26.773c0 11.397 9.239 20.636 20.636 20.636 2.455 0 4.799-.451 6.983-1.238-7.954-2.865-13.652-10.456-13.652-19.398z"/><path d="m308.317 75.546c0-11.397 9.239-20.636 20.636-20.636h-13.967c-11.397 0-20.636 9.239-20.636 20.636 0 11.397 9.239 20.636 20.636 20.636h13.967c-11.397 0-20.636-9.239-20.636-20.636z"/></g></g><g><path d="m332.819 172.177c-17.668-17.668-46.417-17.669-64.086 0l-239.95 239.95c-17.669 17.669-17.669 46.418 0 64.087l22.51 22.51c8.835 8.836 20.442 13.254 32.048 13.254s23.212-4.418 32.048-13.254l20.71-20.71c2.929-2.929 2.929-7.677 0-10.606s-7.678-2.929-10.606 0l-20.71 20.71c-11.824 11.823-31.061 11.823-42.883 0l-22.51-22.51c-11.82-11.82-11.82-31.053 0-42.874l199.334-199.334 65.389 65.388-157.411 157.409c-2.929 2.929-2.929 7.677 0 10.606s7.678 2.929 10.606 0l198.02-198.02c17.671-17.671 17.671-46.425 0-64.096zm11.903 76-30.004 30.004-65.389-65.388 30.01-30.01c11.821-11.82 31.054-11.819 42.874 0l22.51 22.51c11.822 11.823 11.822 31.061-.001 42.884z"/><path d="m468.901 265.426h-8.019v-8.019c0-15.188-12.356-27.545-27.545-27.545s-27.545 12.357-27.545 27.545v8.019h-8.019c-15.188 0-27.545 12.357-27.545 27.545s12.356 27.545 27.545 27.545h8.019v8.019c0 15.188 12.356 27.545 27.545 27.545s27.545-12.357 27.545-27.545v-8.019h8.019c15.188 0 27.545-12.357 27.545-27.545s-12.356-27.545-27.545-27.545zm0 40.09h-15.519c-4.142 0-7.5 3.358-7.5 7.5v15.519c0 6.917-5.627 12.545-12.545 12.545s-12.545-5.628-12.545-12.545v-15.519c0-4.142-3.358-7.5-7.5-7.5h-15.519c-6.917 0-12.545-5.628-12.545-12.545s5.627-12.545 12.545-12.545h15.519c4.142 0 7.5-3.358 7.5-7.5v-15.519c0-6.917 5.627-12.545 12.545-12.545s12.545 5.628 12.545 12.545v15.519c0 4.142 3.358 7.5 7.5 7.5h15.519c6.917 0 12.545 5.628 12.545 12.545s-5.627 12.545-12.545 12.545z"/><path d="m69.496 155.45c4.142 0 7.5-3.358 7.5-7.5s-3.358-7.5-7.5-7.5c-4.013 0-7.787-1.564-10.627-4.403-2.839-2.839-4.403-6.613-4.403-10.627 0-8.293 6.742-15.04 15.03-15.04h45.27c4.142 0 7.5-3.358 7.5-7.5v-45.26c0-8.293 6.742-15.04 15.03-15.04 8.293 0 15.04 6.747 15.04 15.04v45.26c0 4.142 3.358 7.5 7.5 7.5h45.26c4.02 0 7.797 1.564 10.637 4.403 2.839 2.84 4.403 6.617 4.403 10.637 0 8.288-6.747 15.03-15.04 15.03h-45.26c-4.142 0-7.5 3.358-7.5 7.5v45.27c0 8.288-6.747 15.03-15.04 15.03-8.288 0-15.03-6.742-15.03-15.03v-45.27c0-4.142-3.358-7.5-7.5-7.5h-15.27c-4.142 0-7.5 3.358-7.5 7.5s3.358 7.5 7.5 7.5h7.77v37.77c0 16.559 13.471 30.03 30.03 30.03 16.564 0 30.04-13.471 30.04-30.03v-37.77h37.76c16.564 0 30.04-13.471 30.04-30.03 0-8.026-3.124-15.571-8.797-21.243-5.673-5.673-13.217-8.797-21.243-8.797h-37.76v-37.76c0-16.564-13.476-30.04-30.04-30.04-16.559 0-30.03 13.476-30.03 30.04v37.76h-37.77c-16.559 0-30.03 13.476-30.03 30.04 0 8.02 3.124 15.561 8.796 21.234 5.673 5.672 13.214 8.796 21.234 8.796z"/><path d="m314.987 103.682h19.273v19.273c0 15.514 12.622 28.136 28.136 28.136s28.136-12.622 28.136-28.136v-19.273h19.273c15.514 0 28.136-12.622 28.136-28.136s-12.622-28.136-28.136-28.136h-19.273v-19.274c0-15.514-12.622-28.136-28.136-28.136s-28.136 12.622-28.136 28.136v19.273h-19.273c-15.514 0-28.136 12.622-28.136 28.136s12.622 28.137 28.136 28.137zm0-41.273h26.773c4.142 0 7.5-3.358 7.5-7.5v-26.773c0-7.243 5.893-13.136 13.136-13.136s13.136 5.893 13.136 13.136v26.773c0 4.142 3.358 7.5 7.5 7.5h26.773c7.243 0 13.136 5.893 13.136 13.136s-5.893 13.136-13.136 13.136h-26.773c-4.142 0-7.5 3.358-7.5 7.5v26.773c0 7.243-5.893 13.136-13.136 13.136s-13.136-5.893-13.136-13.136v-26.772c0-4.142-3.358-7.5-7.5-7.5h-26.773c-7.243 0-13.136-5.893-13.136-13.136s5.893-13.137 13.136-13.137z"/></g></g></svg>